<?xml version="1.0"?>
<svg xmlns="http://www.w3.org/2000/svg" xmlns:xlink="http://www.w3.org/1999/xlink" xmlns:svgjs="http://svgjs.com/svgjs" version="1.1" width="512" height="512" x="0" y="0" viewBox="0 0 488.03 488.03" style="enable-background:new 0 0 512 512" xml:space="preserve" class=""><g>
<g xmlns="http://www.w3.org/2000/svg">
	<path style="" d="M140.78,114.232c-4.142,0-7.5-3.358-7.5-7.5V73.149c0-4.142,3.358-7.5,7.5-7.5s7.5,3.358,7.5,7.5   v33.583C148.28,110.874,144.922,114.232,140.78,114.232z" fill="#ffe65e" data-original="#ffca5e"/>
	<path style="" d="M129.097,217.173c-4.142,0-7.5-3.358-7.5-7.5v-27.758c0-4.142,3.358-7.5,7.5-7.5s7.5,3.358,7.5,7.5   v27.758C136.597,213.815,133.239,217.173,129.097,217.173z" fill="#ffe65e" data-original="#ffca5e"/>
	<path style="" d="M129.097,336.714c-4.142,0-7.5-3.358-7.5-7.5v-27.757c0-4.142,3.358-7.5,7.5-7.5s7.5,3.358,7.5,7.5   v27.757C136.597,333.356,133.239,336.714,129.097,336.714z" fill="#ffe65e" data-original="#ffca5e"/>
	<g>
		<path style="" d="M145.807,409.422c21.789,21.789,52.101,29.854,80.204,24.205    c5.649-28.103-2.416-58.415-24.205-80.204s-52.101-29.854-80.204-24.205C115.953,357.321,124.018,387.633,145.807,409.422z" fill="#ffe65e" data-original="#ffca5e"/>
		<path style="" d="M145.807,409.422c21.79,21.79,52.1,29.86,80.21,24.21c-15.23-7.23-37.06-23.77-58.85-45.56    c-21.79-21.79-38.34-43.62-45.56-58.85C115.957,357.322,124.017,387.632,145.807,409.422z" fill="#e8b828" data-original="#e8a328" class=""/>
	</g>
	<g>
		<path style="" d="M145.802,289.877c21.789,21.789,52.101,29.854,80.204,24.205    c5.649-28.103-2.416-58.415-24.205-80.204s-52.101-29.854-80.204-24.205C115.948,237.776,124.013,268.088,145.802,289.877z" fill="#ffe65e" data-original="#ffca5e"/>
		<path style="" d="M145.802,289.877c21.79,21.79,52.1,29.86,80.21,24.21c-15.23-7.23-37.06-23.77-58.85-45.56    c-21.79-21.79-38.34-43.62-45.56-58.85C115.952,237.777,124.012,268.087,145.802,289.877z" fill="#e8b828" data-original="#e8a328" class=""/>
	</g>
	<g>
		<path style="" d="M154.994,178.683c19.547,19.547,46.74,26.782,71.951,21.715    c5.068-25.211-2.168-52.404-21.715-71.951s-46.74-26.782-71.951-21.715C128.212,131.943,135.447,159.136,154.994,178.683z" fill="#ffe65e" data-original="#ffca5e"/>
		<path style="" d="M154.994,178.683c19.548,19.548,46.739,26.788,71.957,21.719    c-13.663-6.486-33.247-21.324-52.795-40.872c-19.548-19.548-34.395-39.132-40.872-52.795    C128.216,131.944,135.446,159.135,154.994,178.683z" fill="#e8b828" data-original="#e8a328" class=""/>
	</g>
	<path style="" d="M358.933,217.173c-4.142,0-7.5-3.358-7.5-7.5v-27.758c0-4.142,3.358-7.5,7.5-7.5s7.5,3.358,7.5,7.5   v27.758C366.433,213.815,363.075,217.173,358.933,217.173z" fill="#ffe65e" data-original="#ffca5e"/>
	<path style="" d="M358.933,336.714c-4.142,0-7.5-3.358-7.5-7.5v-27.757c0-4.142,3.358-7.5,7.5-7.5s7.5,3.358,7.5,7.5   v27.757C366.433,333.356,363.075,336.714,358.933,336.714z" fill="#ffe65e" data-original="#ffca5e"/>
	<path style="" d="M347.25,114.232c-4.142,0-7.5-3.358-7.5-7.5V73.149c0-4.142,3.358-7.5,7.5-7.5s7.5,3.358,7.5,7.5   v33.583C354.75,110.874,351.392,114.232,347.25,114.232z" fill="#ffe65e" data-original="#ffca5e"/>
	<polyline style="" points="262.024,109.333 262.024,488.03 226.006,488.03 226.006,109.322  " fill="#e8b828" data-original="#e8a328" class=""/>
	<polyline style="" points="262.024,109.333 262.024,488.03 243.026,488.03 243.026,109.322  " fill="#ffe65e" data-original="#ffca5e"/>
	<g>
		<path style="" d="M342.223,409.422c-21.789,21.789-52.101,29.854-80.204,24.205    c-5.649-28.103,2.416-58.415,24.205-80.204s52.101-29.854,80.204-24.205C372.077,357.321,364.012,387.633,342.223,409.422z" fill="#ffe65e" data-original="#ffca5e"/>
		<path style="" d="M342.223,409.422c-21.79,21.79-52.1,29.86-80.21,24.21c15.23-7.23,37.06-23.77,58.85-45.56    c21.79-21.79,38.34-43.62,45.56-58.85C372.073,357.322,364.013,387.632,342.223,409.422z" fill="#e8b828" data-original="#e8a328" class=""/>
	</g>
	<g>
		<path style="" d="M342.228,289.877c-21.789,21.789-52.101,29.854-80.204,24.205    c-5.649-28.103,2.416-58.415,24.205-80.204s52.101-29.854,80.204-24.205C372.082,237.776,364.017,268.088,342.228,289.877z" fill="#ffe65e" data-original="#ffca5e"/>
		<path style="" d="M342.228,289.877c-21.79,21.79-52.1,29.86-80.21,24.21c15.23-7.23,37.06-23.77,58.85-45.56    c21.79-21.79,38.34-43.62,45.56-58.85C372.078,237.777,364.018,268.087,342.228,289.877z" fill="#e8b828" data-original="#e8a328" class=""/>
	</g>
	<g>
		<path style="" d="M333.036,178.683c-19.547,19.547-46.74,26.782-71.951,21.715    c-5.068-25.211,2.168-52.404,21.715-71.951c19.547-19.547,46.74-26.782,71.951-21.715    C359.818,131.943,352.583,159.136,333.036,178.683z" fill="#ffe65e" data-original="#ffca5e"/>
		<path style="" d="M333.036,178.683c-19.548,19.548-46.739,26.788-71.957,21.719    c13.663-6.486,33.247-21.324,52.795-40.872c19.548-19.548,34.395-39.132,40.872-52.795    C359.814,131.944,352.584,159.135,333.036,178.683z" fill="#e8b828" data-original="#e8a328" class=""/>
	</g>
	<path style="" d="M278.963,65.158c0,27.194-13.883,51.142-34.945,65.154c-21.062-14.012-34.945-37.96-34.945-65.154   s13.883-51.142,34.945-65.154C265.08,14.016,278.963,37.964,278.963,65.158z" fill="#ffe65e" data-original="#ffca5e"/>
	<path style="" d="M233.524,65.153c0,27.202,4.178,51.147,10.501,65.164c-21.07-14.017-34.952-37.962-34.952-65.164   c0-27.191,13.882-51.136,34.952-65.153C237.702,14.017,233.524,37.962,233.524,65.153z" fill="#e8b828" data-original="#e8a328" class=""/>
</g>















</g></svg>
